<?xml version="1.0" encoding="utf-8"?>
<!-- Generator: Adobe Illustrator 27.5.0, SVG Export Plug-In . SVG Version: 6.00 Build 0)  -->
<svg version="1.1" id="Ebene_1" xmlns="http://www.w3.org/2000/svg" xmlns:xlink="http://www.w3.org/1999/xlink" x="0px" y="0px"
	 viewBox="0 0 48 48" style="enable-background:new 0 0 48 48;" xml:space="preserve">
<style type="text/css">
	.st0{fill:#FFFFFF;}
</style>
<path class="st0" d="M39,40H13c-0.8,0-1.5-0.3-2.1-0.9C10.3,38.5,10,37.8,10,37V5c0-0.8,0.3-1.5,0.9-2.1C11.5,2.3,12.2,2,13,2h17.4
	L42,13.6V37c0,0.8-0.3,1.5-0.9,2.1C40.5,39.7,39.8,40,39,40z M28.9,14.9V5H13v32h26V14.9H28.9z M7,46c-0.8,0-1.5-0.3-2.1-0.9
	C4.3,44.5,4,43.8,4,43v-31h3v31h24.9v3H7z M13,5v9.9V5v32V5z"/>
</svg>
