<?xml version="1.0" encoding="utf-8"?>
<!-- Generator: Adobe Illustrator 27.5.0, SVG Export Plug-In . SVG Version: 6.00 Build 0)  -->
<svg version="1.1" id="Ebene_1" xmlns="http://www.w3.org/2000/svg" xmlns:xlink="http://www.w3.org/1999/xlink" x="0px" y="0px"
	 viewBox="0 0 48 48" style="enable-background:new 0 0 48 48;" xml:space="preserve">
<style type="text/css">
	.st0{fill:#FFFFFF;}
</style>
<path class="st0" d="M33,41.2l5.9-5.8v4.9h1.5v-7.5h-7.5v1.5h5L32,40.2L33,41.2z M9,42c-0.8,0-1.5-0.3-2.1-0.9C6.3,40.5,6,39.8,6,39
	V9c0-0.8,0.3-1.5,0.9-2.1S8.2,6,9,6h30c0.8,0,1.5,0.3,2.1,0.9C41.7,7.5,42,8.2,42,9v16.5c-0.5-0.3-1-0.5-1.5-0.6
	c-0.5-0.2-1-0.3-1.5-0.4V9H9v30h15.5c0.1,0.5,0.3,1.1,0.5,1.6c0.2,0.5,0.4,1,0.6,1.4H9z M9,36.7V39V9v15.4v-0.2V36.7z M14,34h10.6
	c0.1-0.5,0.3-1,0.4-1.5c0.2-0.5,0.4-1,0.6-1.5H14V34z M14,25.5h17.2c0.5-0.2,0.9-0.4,1.3-0.6c0.4-0.2,0.9-0.3,1.5-0.4v-2H14V25.5z
	 M14,17h20v-3H14V17z M36.6,46C34,46,31.8,45,30,43.2c-1.8-1.8-2.8-4-2.8-6.6c0-2.6,0.9-4.8,2.7-6.7c1.8-1.8,4-2.8,6.7-2.8
	c2.6,0,4.8,0.9,6.6,2.8c1.8,1.8,2.8,4.1,2.8,6.7c0,2.5-0.9,4.7-2.8,6.6C41.4,45,39.2,46,36.6,46z"/>
</svg>
