<?xml version="1.0" encoding="utf-8"?>
<!-- Generator: Adobe Illustrator 27.3.0, SVG Export Plug-In . SVG Version: 6.00 Build 0)  -->
<svg version="1.1" id="Ebene_1" xmlns="http://www.w3.org/2000/svg" xmlns:xlink="http://www.w3.org/1999/xlink" x="0px" y="0px"
	 viewBox="0 0 48 48" style="enable-background:new 0 0 48 48;" xml:space="preserve">
<style type="text/css">
	.st0{fill:#FFFFFF;}
</style>
<path class="st0" d="M21.5,31.5c0-2.4,0.3-4.1,0.8-5.2s1.5-2.3,2.9-3.6c1.4-1.3,2.5-2.4,3.2-3.5s1.1-2.2,1.1-3.5
	c0-1.5-0.5-2.8-1.5-3.8c-1-1-2.4-1.5-4.2-1.5c-1.7,0-3.1,0.5-4,1.5s-1.6,2-2.1,3.1l-4.2-1.9c0.7-2,2-3.6,3.7-5S21.4,6,24,6
	c3.3,0,5.9,0.9,7.7,2.8c1.8,1.8,2.7,4.1,2.7,6.7c0,1.6-0.3,3.1-1,4.3c-0.7,1.3-1.8,2.7-3.3,4.1c-1.6,1.6-2.6,2.8-3,3.6
	c-0.3,0.8-0.5,2.2-0.5,4H21.5z M23.9,44c-1,0-1.8-0.3-2.5-1c-0.7-0.7-1-1.5-1-2.5s0.3-1.8,1-2.5c0.7-0.7,1.5-1,2.5-1
	c1,0,1.8,0.3,2.5,1c0.7,0.7,1,1.5,1,2.5c0,1-0.3,1.8-1,2.5C25.7,43.7,24.9,44,23.9,44z"/>
</svg>
