<?xml version="1.0" encoding="utf-8"?>
<!-- Generator: Adobe Illustrator 27.5.0, SVG Export Plug-In . SVG Version: 6.00 Build 0)  -->
<svg version="1.1" id="Ebene_1" xmlns="http://www.w3.org/2000/svg" xmlns:xlink="http://www.w3.org/1999/xlink" x="0px" y="0px"
	 viewBox="0 0 48 48" style="enable-background:new 0 0 48 48;" xml:space="preserve">
<style type="text/css">
	.st0{fill:#FFFFFF;}
</style>
<path class="st0" d="M22.6,41.9c-4.1-0.3-7.6-2-10.4-5C9.4,33.8,8,30.2,8,26.1c0-2.6,0.6-5,1.8-7.3s2.8-4.1,5-5.5l2.1,2.2
	c-1.9,1.1-3.3,2.6-4.3,4.5s-1.6,4-1.6,6.1c0,3.3,1.1,6.2,3.3,8.6s4.9,3.8,8.3,4.2V41.9z M25.6,41.9v-3c3.3-0.4,6.1-1.8,8.2-4.2
	c2.2-2.4,3.2-5.3,3.2-8.6c0-3.6-1.3-6.7-3.8-9.2s-5.6-3.8-9.2-3.8h-1l3,3l-2.2,2.2l-6.6-6.7l6.6-6.7l2.2,2.2l-3,3h1
	c4.5,0,8.2,1.6,11.4,4.7c3.1,3.1,4.6,6.9,4.6,11.3c0,4.2-1.4,7.8-4.2,10.8C33.1,39.9,29.6,41.6,25.6,41.9z"/>
</svg>
