<?xml version="1.0" encoding="utf-8"?>
<!-- Generator: Adobe Illustrator 27.5.0, SVG Export Plug-In . SVG Version: 6.00 Build 0)  -->
<svg version="1.1" id="Ebene_1" xmlns="http://www.w3.org/2000/svg" xmlns:xlink="http://www.w3.org/1999/xlink" x="0px" y="0px"
	 viewBox="0 0 48 48" style="enable-background:new 0 0 48 48;" xml:space="preserve">
<style type="text/css">
	.st0{fill:#FFFFFF;}
</style>
<path class="st0" d="M7,40c-0.8,0-1.5-0.3-2.1-0.9C4.3,38.5,4,37.8,4,37V11c0-0.8,0.3-1.5,0.9-2.1C5.5,8.3,6.2,8,7,8h34
	c0.8,0,1.5,0.3,2.1,0.9C43.7,9.5,44,10.2,44,11v26c0,0.8-0.3,1.5-0.9,2.1C42.5,39.7,41.8,40,41,40H7z M7,37h34V15.2H7V37z M15,33.4
	l-2.1-2.1l5.2-5.2l-5.2-5.2l2.1-2.1l7.3,7.3L15,33.4z M24.5,33.6v-3h11v3H24.5z"/>
</svg>
