<?xml version="1.0" encoding="utf-8"?>
<!-- Generator: Adobe Illustrator 27.5.0, SVG Export Plug-In . SVG Version: 6.00 Build 0)  -->
<svg version="1.1" xmlns="http://www.w3.org/2000/svg" xmlns:xlink="http://www.w3.org/1999/xlink" x="0px" y="0px"
	 viewBox="0 0 48 48" style="enable-background:new 0 0 48 48;" xml:space="preserve">
<style type="text/css">
	.st0{fill:#FFFFFF;}
	.st1{fill:none;stroke:#FFFFFF;stroke-width:11.3386;stroke-linecap:round;stroke-miterlimit:10;}
</style>
<g id="Ebene_1">
</g>
<g id="Ebene_4">
	<g>
		<path class="st0" d="M10.1,16.6C10.1,16.6,10.1,16.6,10.1,16.6c2.8-5.2,8.1-8.4,13.9-8.4c6.5,0,12.4,4.1,14.8,10.2
			c0.2,0.5,0.7,0.8,1.2,0.8c0.1,0,0.3,0,0.4-0.1c0.6-0.2,1-1,0.7-1.6c-2.7-7-9.5-11.8-17.1-11.8c-5.9,0-11.4,2.8-14.8,7.5
			C8.8,13.9,8,14,7.4,13.7l-3.9-2.2c-0.3-0.2-0.7-0.2-1-0.1C2,11.5,1.6,12,1.7,12.5l0.7,12.9c0,0.5,0.4,1,0.9,1.1c0.1,0,0.2,0,0.3,0
			c0.4,0,0.8-0.2,1.1-0.6L10.1,16.6C10.1,16.6,10.1,16.6,10.1,16.6z"/>
		<path class="st0" d="M45.7,22.6c0-0.5-0.4-1-0.9-1.1c-0.5-0.1-1.1,0.1-1.4,0.6L38,31.4c0,0,0,0,0,0c0,0,0,0,0,0
			c-2.8,5.2-8.1,8.4-13.9,8.4c-6.5,0-12.4-4.1-14.7-10.1c-0.2-0.6-0.9-1-1.6-0.8c-0.7,0.2-1,1-0.8,1.6c2.7,7,9.5,11.8,17.1,11.8
			c5.9,0,11.4-2.8,14.8-7.5c0.4-0.6,1.2-0.7,1.8-0.4l3.9,2.3c0.2,0.1,0.4,0.2,0.6,0.2c0.2,0,0.4-0.1,0.6-0.2
			c0.4-0.2,0.6-0.7,0.6-1.1L45.7,22.6z"/>
	</g>
	<circle class="st1" cx="24" cy="24" r="2.6"/>
</g>
</svg>
